<?xml version="1.0" standalone="no"?>
<!DOCTYPE svg PUBLIC "-//W3C//DTD SVG 20010904//EN"
 "http://www.w3.org/TR/2001/REC-SVG-20010904/DTD/svg10.dtd">
<svg version="1.0" xmlns="http://www.w3.org/2000/svg"
 width="300.000000pt" height="300.000000pt" viewBox="0 0 300.000000 300.000000"
 preserveAspectRatio="xMidYMid meet">

<g transform="translate(0.000000,300.000000) scale(0.100000,-0.100000)"
fill="#000000" stroke="none">
<path d="M1320 2990 c-654 -90 -1153 -554 -1291 -1200 -19 -87 -23 -136 -23
-290 0 -205 17 -311 76 -485 145 -429 504 -788 933 -933 174 -59 280 -76 485
-76 205 0 311 17 485 76 429 145 788 504 933 933 59 174 76 280 76 485 0 154
-4 203 -23 290 -98 458 -379 832 -780 1039 -219 112 -405 159 -651 166 -85 2
-184 0 -220 -5z m282 -474 c115 -19 214 -51 314 -102 l82 -42 44 45 c105 108
254 138 406 81 79 -29 170 -121 202 -203 33 -83 34 -206 1 -287 -27 -69 -94
-146 -159 -184 -26 -15 -48 -28 -50 -29 -1 -1 7 -42 19 -91 33 -132 31 -342
-4 -476 -81 -311 -274 -552 -552 -690 -344 -172 -774 -135 -1085 91 -89 65
-218 206 -274 299 -57 96 -111 234 -133 341 -19 93 -21 302 -4 391 108 572
631 947 1193 856z"/>
<path d="M1303 2046 c-202 -49 -385 -239 -429 -445 -64 -304 123 -608 422
-685 79 -20 209 -20 288 0 184 47 344 197 408 382 32 93 32 268 0 356 -74 200
-223 340 -418 390 -73 19 -198 19 -271 2z"/>
</g>
</svg>
